<?xml version="1.0" standalone="no"?>
<!DOCTYPE svg PUBLIC "-//W3C//DTD SVG 20010904//EN"
 "http://www.w3.org/TR/2001/REC-SVG-20010904/DTD/svg10.dtd">
<svg version="1.0" xmlns="http://www.w3.org/2000/svg"
 width="500.000000pt" height="500.000000pt" viewBox="0 0 500.000000 500.000000"
 preserveAspectRatio="xMidYMid meet">
<metadata>
Created by potrace 1.14, written by Peter Selinger 2001-2017
</metadata>
<g transform="translate(0.000000,500.000000) scale(0.100000,-0.100000)"
fill="#000000" stroke="none">
<path d="M3153 3795 c-24 -7 -65 -27 -93 -45 -34 -22 -69 -34 -108 -39 -31 -4
-67 -13 -79 -19 -35 -19 -27 -4 10 18 17 11 48 20 67 20 40 0 102 28 108 49 4
11 -1 10 -19 -2 -16 -12 -44 -17 -90 -17 -80 0 -122 -24 -158 -88 -21 -40 -24
-42 -40 -28 -10 9 -39 19 -64 22 -91 13 -158 -33 -201 -137 -9 -21 -37 -53
-71 -79 -88 -68 -105 -123 -65 -213 l21 -47 -26 -47 c-29 -56 -31 -71 -9 -101
21 -30 49 -31 32 -1 -11 18 -11 23 0 26 7 3 25 16 40 28 24 21 27 30 25 78 -2
48 0 55 21 65 14 6 34 33 49 64 14 29 32 62 42 73 l17 20 -7 -20 c-4 -11 -16
-42 -26 -69 -26 -70 -40 -180 -27 -217 16 -47 2 -90 -52 -154 -63 -77 -66
-106 -11 -134 34 -18 40 -25 44 -63 6 -60 16 -100 28 -115 6 -7 8 -31 4 -57
-6 -40 -4 -48 18 -70 32 -32 46 -32 160 0 158 45 177 37 245 -95 44 -84 54
-119 54 -187 0 -40 -8 -58 -61 -134 -33 -48 -57 -90 -54 -94 10 -10 1046 -7
1062 3 12 8 12 14 2 39 -7 17 -19 33 -27 36 -13 5 -54 64 -54 78 0 4 23 -18
52 -48 28 -30 58 -53 66 -52 9 2 21 -8 28 -20 6 -13 17 -29 24 -35 16 -17 39
16 32 48 -4 26 -54 75 -75 75 -7 0 -21 7 -31 15 -18 14 -18 15 8 49 56 74 48
145 -25 214 -28 26 -57 59 -65 74 -15 30 -19 115 -5 137 5 8 7 -3 4 -31 -7
-58 14 -103 74 -159 74 -69 94 -150 53 -217 -22 -36 -24 -42 -12 -42 5 0 19
18 31 40 18 32 22 52 19 93 -2 29 -8 61 -13 71 -7 16 -5 18 8 13 30 -11 27 11
-3 23 -79 33 -113 119 -103 262 4 56 2 92 -6 109 l-12 24 21 -25 c20 -23 22
-32 15 -115 -7 -100 1 -134 43 -177 20 -22 35 -28 66 -28 48 0 61 7 70 38 9
28 -1 28 -23 0 -16 -19 -21 -20 -48 -9 -64 26 -81 113 -38 190 48 83 27 159
-59 216 -61 40 -67 58 -14 39 22 -8 48 -14 58 -14 26 0 50 -32 59 -81 l9 -44
1 45 c1 27 -5 55 -14 68 -11 15 -14 32 -9 57 10 54 -2 85 -31 85 -21 0 -24 -4
-20 -23 8 -29 -31 -53 -69 -43 -42 10 -63 42 -70 107 -6 55 -11 63 -57 108
l-50 49 56 -2 c50 -1 59 2 81 27 27 32 32 83 10 113 -19 26 -30 13 -15 -19 10
-22 9 -31 -5 -52 -19 -29 -33 -31 -79 -11 -47 20 -67 47 -76 104 -8 55 -22 78
-50 87 -21 6 -44 50 -60 112 -15 54 -53 100 -91 108 -17 4 -30 11 -30 16 0 9
34 4 78 -12 12 -5 22 -5 22 0 0 12 -56 31 -90 31 -15 0 -48 -11 -73 -25 l-46
-24 -22 31 c-32 45 -100 72 -163 64 -34 -3 -44 -2 -31 4 39 17 126 11 163 -12
24 -15 33 -17 30 -7 -13 42 -122 61 -205 34z m374 -132 c26 -17 53 -68 53 -99
0 -9 -15 6 -32 32 -25 36 -44 53 -78 66 l-45 17 38 0 c21 1 49 -7 64 -16z
m-1147 -355 c-1 -43 -3 -49 -11 -35 -10 17 -4 87 6 87 3 0 5 -24 5 -52z m0
-179 c0 -11 -4 -18 -10 -14 -5 3 -7 12 -3 20 7 21 13 19 13 -6z m1639 -185
c-13 -16 -49 -19 -49 -5 0 5 9 13 20 16 11 3 23 18 27 33 l8 27 3 -28 c2 -16
-2 -35 -9 -43z"/>
<path d="M2782 3740 c-23 -17 -42 -35 -42 -42 0 -6 10 -2 23 10 12 11 42 30
67 41 38 17 41 21 19 21 -14 0 -45 -14 -67 -30z"/>
<path d="M2547 3670 c-32 -25 -67 -81 -67 -106 1 -13 7 -8 20 17 10 19 36 52
57 72 40 39 33 51 -10 17z"/>
<path d="M1544 3598 c-12 -18 -9 -128 6 -243 11 -91 11 -144 -3 -245 -2 -19 1
-41 7 -49 6 -8 10 -17 9 -20 -2 -3 0 -14 3 -24 4 -13 -14 -36 -67 -85 -86 -79
-168 -187 -240 -315 -28 -50 -67 -113 -85 -138 -19 -26 -37 -62 -41 -80 -4
-22 -24 -51 -58 -84 -35 -35 -55 -64 -64 -95 -7 -25 -29 -85 -48 -133 -19 -48
-32 -91 -28 -95 4 -4 243 -9 531 -10 l524 -4 0 21 c0 12 4 21 9 21 5 0 8 19 6
43 -2 23 -4 42 -5 42 -2 0 -4 11 -5 25 -5 42 -10 55 -31 85 -27 39 -55 97 -43
90 5 -4 9 10 9 30 0 30 7 43 41 73 22 20 45 37 51 37 12 0 68 55 68 66 0 5 26
15 58 24 127 35 132 37 197 107 59 62 65 72 65 111 0 26 -9 58 -25 86 -14 23
-25 58 -25 77 0 38 -17 51 -69 52 -41 1 -49 12 -57 77 -6 44 -13 57 -63 105
-62 61 -109 81 -231 101 -69 10 -79 15 -116 54 -32 33 -48 63 -70 131 -33 101
-61 127 -50 48 6 -46 5 -47 -7 -19 -43 108 -125 178 -153 133z"/>
<path d="M3640 3580 c0 -5 16 -10 36 -10 21 0 33 4 29 10 -3 6 -19 10 -36 10
-16 0 -29 -4 -29 -10z"/>
<path d="M2387 3512 c-32 -22 -56 -52 -57 -71 0 -8 17 3 38 25 20 21 46 44 57
51 14 8 16 12 5 12 -8 1 -27 -7 -43 -17z"/>
<path d="M3697 3488 c31 -35 43 -63 43 -102 0 -20 5 -36 11 -36 8 0 10 16 6
52 -5 37 -14 59 -34 80 -32 33 -56 38 -26 6z"/>
<path d="M3871 3136 c25 -35 31 -54 31 -93 -1 -44 0 -46 14 -29 7 11 14 28 14
38 0 29 -26 83 -51 107 -37 34 -41 24 -8 -23z"/>
<path d="M2372 2447 c-16 -18 -52 -115 -52 -137 0 -11 7 -20 15 -20 8 0 15 5
15 10 0 6 16 10 35 10 19 0 35 -4 35 -10 0 -5 9 -10 20 -10 24 0 24 1 1 72
-32 95 -46 113 -69 85z m28 -83 c0 -14 -12 -19 -23 -8 -9 9 4 35 14 28 5 -3 9
-12 9 -20z"/>
<path d="M2320 2210 c-18 -42 -6 -80 25 -80 34 0 43 39 19 79 -23 38 -28 39
-44 1z"/>
<path d="M2416 2216 c-9 -14 -16 -39 -16 -56 0 -25 4 -30 25 -30 29 0 48 30
39 64 -10 42 -29 50 -48 22z"/>
<path d="M2257 2153 c-13 -12 -7 -51 9 -67 12 -12 20 -13 35 -6 25 14 24 24
-5 54 -25 28 -29 30 -39 19z"/>
<path d="M2480 2135 c-19 -21 -22 -29 -14 -43 6 -9 20 -17 30 -17 15 0 20 9
22 43 4 48 -5 52 -38 17z"/>
<path d="M2337 2079 c-80 -66 -69 -120 21 -97 18 5 46 5 65 0 41 -11 67 0 67
30 0 26 -71 98 -97 98 -10 0 -35 -14 -56 -31z"/>
<path d="M2155 1889 c-10 -32 5 -161 19 -156 6 2 12 16 14 30 3 20 9 27 25 27
39 0 67 28 67 65 0 41 -20 55 -79 55 -31 0 -41 -4 -46 -21z m83 -36 c-2 -10
-12 -18 -23 -18 -11 0 -21 8 -23 18 -3 13 3 17 23 17 20 0 26 -4 23 -17z"/>
<path d="M2332 1823 l3 -88 50 0 c39 0 50 4 53 17 2 12 -5 17 -29 20 -38 4
-50 25 -17 30 30 4 30 32 1 36 -34 5 -29 32 6 32 29 0 57 21 44 33 -3 4 -31 7
-60 7 l-54 0 3 -87z"/>
<path d="M2490 1900 c0 -5 11 -17 25 -26 21 -13 25 -25 27 -77 3 -66 21 -85
26 -27 5 75 12 98 32 103 11 3 20 12 20 21 0 13 -12 16 -65 16 -36 0 -65 -4
-65 -10z"/>
<path d="M2868 1867 c-117 -43 -198 -126 -198 -204 0 -62 32 -93 95 -93 60 0
68 20 25 60 -29 27 -32 35 -27 67 9 51 33 81 97 117 46 26 66 31 122 31 60 0
70 -3 97 -29 43 -42 43 -94 0 -130 -17 -14 -39 -26 -49 -26 -9 0 -23 -7 -30
-15 -20 -24 3 -40 50 -36 35 2 42 -1 60 -31 59 -94 -31 -221 -166 -235 -56 -6
-57 -6 -52 18 3 13 28 112 56 219 28 107 47 199 42 203 -4 5 -24 7 -45 5 l-39
-3 -51 -205 c-28 -113 -56 -204 -61 -203 -6 1 -34 18 -63 37 -68 46 -133 50
-180 10 -68 -57 -58 -169 20 -210 63 -32 188 -7 257 52 29 24 44 30 68 27 45
-7 171 33 230 73 54 36 94 95 94 138 0 43 -26 92 -59 112 -36 22 -37 25 -11
41 49 32 61 109 24 162 -47 67 -194 90 -306 48z m-180 -466 c20 -11 49 -32 65
-48 l28 -30 -22 -27 c-65 -83 -199 -69 -199 22 0 42 43 92 88 101 1 1 19 -8
40 -18z"/>
<path d="M961 1866 c-13 -16 1 -31 34 -38 18 -3 21 -14 27 -108 5 -58 6 -125
4 -150 -3 -25 -5 -76 -5 -113 l-1 -68 -36 -15 c-60 -25 -37 -39 62 -39 74 0
89 3 92 16 2 11 -6 18 -26 22 l-29 6 -6 122 c-10 185 -9 309 4 309 6 0 40 -62
76 -137 135 -286 152 -320 167 -332 8 -7 30 -11 48 -9 l33 3 5 245 c5 235 6
245 25 248 11 2 26 9 33 15 11 9 11 13 -4 24 -20 15 -141 18 -163 4 -19 -12
-6 -41 19 -41 13 0 24 -10 30 -26 11 -29 12 -179 2 -238 l-7 -40 -37 80 c-20
43 -54 118 -76 166 -22 47 -49 91 -60 97 -31 16 -197 14 -211 -3z"/>
<path d="M3725 1873 c-16 -2 -75 -13 -130 -25 -55 -11 -147 -23 -204 -27 -110
-6 -145 -24 -75 -37 43 -8 147 3 334 36 122 22 216 23 345 5 39 -6 76 7 62 21
-21 21 -244 39 -332 27z"/>
<path d="M1885 1820 c-140 -28 -287 -50 -332 -50 -40 0 -53 -4 -53 -15 0 -33
100 -31 280 4 52 11 133 22 179 25 79 5 115 16 94 29 -17 11 -128 15 -168 7z"/>
<path d="M3862 1743 c-5 -10 -12 -30 -16 -45 -5 -21 -14 -29 -42 -34 -40 -7
-45 -37 -6 -42 26 -4 26 -10 7 -82 -8 -30 -15 -81 -15 -113 0 -48 4 -62 25
-82 38 -38 95 -30 139 19 24 28 86 155 86 178 0 35 -27 17 -45 -29 -33 -88
-88 -156 -109 -136 -11 12 -6 87 11 165 l17 77 40 3 c29 2 42 8 44 20 2 12 -5
17 -30 20 -33 3 -33 3 -30 51 l4 47 -36 0 c-24 0 -38 -6 -44 -17z"/>
<path d="M1642 1667 c-50 -15 -128 -107 -140 -162 -17 -82 12 -148 79 -175 61
-25 135 13 200 103 16 21 52 53 82 71 l54 33 55 -53 c60 -57 71 -75 62 -99
-13 -33 -43 -37 -90 -15 -24 12 -51 19 -59 16 -15 -5 -22 -56 -7 -56 4 0 38
-3 75 -5 82 -6 129 11 151 54 29 56 21 88 -35 145 -63 63 -74 83 -58 102 15
19 44 18 74 -2 23 -15 25 -15 31 1 11 29 -21 50 -78 50 -49 0 -52 -2 -99 -54
-44 -49 -94 -91 -110 -91 -4 0 -9 17 -12 38 -8 49 -32 81 -73 98 -38 16 -56
16 -102 1z m92 -59 c22 -31 20 -37 -11 -35 -24 2 -28 -2 -31 -27 -3 -20 4 -36
22 -55 l26 -27 -29 -42 c-31 -42 -58 -62 -85 -62 -65 0 -61 153 6 234 35 43
78 49 102 14z"/>
<path d="M2293 1670 c-39 -16 -98 -86 -117 -139 -34 -94 -9 -171 65 -201 73
-31 158 29 227 158 23 44 42 89 42 101 0 37 -24 23 -44 -27 -30 -74 -83 -150
-118 -172 -42 -25 -44 -25 -73 5 -36 35 -32 58 14 79 62 27 101 78 101 131 0
62 -39 88 -97 65z m44 -67 c-6 -34 -50 -93 -70 -93 -4 0 -5 10 -2 23 27 92 84
149 72 70z"/>
<path d="M3375 1668 c-39 -14 -60 -33 -98 -87 -24 -35 -31 -57 -35 -111 -5
-77 5 -102 51 -130 72 -44 137 -12 203 99 l48 79 49 -41 c67 -57 74 -73 46
-103 -27 -29 -34 -29 -84 -4 -45 23 -62 25 -68 8 -11 -35 4 -45 79 -52 109
-10 164 25 164 106 0 33 -9 48 -60 103 -50 54 -59 68 -51 84 15 27 34 31 70
14 17 -9 35 -13 38 -9 14 13 -14 41 -48 48 -65 14 -130 -25 -145 -86 -18 -72
-106 -199 -146 -212 -27 -8 -58 23 -58 57 0 23 7 32 33 42 17 8 49 33 70 56
47 52 51 99 11 130 -30 24 -28 23 -69 9z m40 -38 c11 -18 -14 -75 -45 -105
-16 -16 -33 -26 -36 -22 -14 14 45 137 65 137 6 0 13 -5 16 -10z"/>
</g>
</svg>
